<svg xmlns="http://www.w3.org/2000/svg" width="64" height="64" viewBox="0 0 64 64">
  <!-- Background circle -->
  <circle cx="32" cy="32" r="30" fill="#262626" />
  
  <!-- Budget Buddy "B" letters -->
  <path d="M20 16 L20 48 L28 48 C34 48 38 44 38 40 C38 36 35 33 31 32 C34 31 36 28 36 25 C36 21 32 16 26 16 Z" fill="none" stroke="#f5f5f5" stroke-width="3" />
  <path d="M36 16 L36 48 L44 48 C50 48 54 44 54 40 C54 36 51 33 47 32 C50 31 52 28 52 25 C52 21 48 16 42 16 Z" fill="none" stroke="#f5f5f5" stroke-width="3" />
  
  <!-- Euro symbol for budget -->
  <path d="M32 52 C26 52 22 50 20 48 M18 40 L32 40 M18 36 L32 36 M20 28 C22 26 26 24 32 24" fill="none" stroke="#f5f5f5" stroke-width="2" />
</svg>
